<svg width="36" height="36" viewBox="0 0 36 36" fill="none" xmlns="http://www.w3.org/2000/svg">
<path d="M17.9785 0C20.4731 0 22.81 0.473118 24.9892 1.41935C27.1685 2.36559 29.0753 3.64875 30.7097 5.26882C32.3441 6.88889 33.6344 8.78853 34.5806 10.9677C35.5269 13.147 36 15.4839 36 17.9785C36 20.4731 35.5269 22.81 34.5806 24.9892C33.6344 27.1685 32.3441 29.0753 30.7097 30.7097C29.0753 32.3441 27.1685 33.6344 24.9892 34.5806C22.81 35.5269 20.4731 36 17.9785 36C15.4839 36 13.147 35.5269 10.9677 34.5806C8.78853 33.6344 6.88889 32.3441 5.26882 30.7097C3.64875 29.0753 2.36559 27.1685 1.41935 24.9892C0.473118 22.81 0 20.4731 0 17.9785C0 15.4839 0.473118 13.147 1.41935 10.9677C2.36559 8.78853 3.64875 6.88889 5.26882 5.26882C6.88889 3.64875 8.78853 2.36559 10.9677 1.41935C13.147 0.473118 15.4839 0 17.9785 0ZM12.3871 13.5054H7.87097V28.129H12.3871V13.5054ZM10.1075 12.3441C10.7384 12.3441 11.276 12.129 11.7204 11.6989C12.1649 11.2688 12.3871 10.7384 12.3871 10.1075C12.3871 9.4767 12.1649 8.94624 11.7204 8.51613C11.276 8.08602 10.7384 7.87097 10.1075 7.87097C9.4767 7.87097 8.94624 8.08602 8.51613 8.51613C8.08602 8.94624 7.87097 9.4767 7.87097 10.1075C7.87097 10.7384 8.08602 11.2688 8.51613 11.6989C8.94624 12.129 9.4767 12.3441 10.1075 12.3441ZM28.129 19.6559C28.129 18.6237 27.8423 17.6129 27.2688 16.6237C26.6953 15.6344 25.9498 14.8817 25.0323 14.3656C24.2007 13.9068 23.233 13.6631 22.129 13.6344C21.0251 13.6057 20.0143 13.7921 19.0968 14.1935V13.5054H14.6237V28.129H19.0968V19.1828L20.9892 18.2796C21.2186 18.1649 21.5269 18.1075 21.914 18.1075C22.3011 18.1075 22.6093 18.1792 22.8387 18.3226C23.0108 18.4086 23.1828 18.595 23.3548 18.8817C23.5269 19.1685 23.6129 19.4265 23.6129 19.6559V28.129H28.129V19.6559Z" fill="white" fill-opacity="0.5"/>
</svg>
