<svg width="173" height="31" viewBox="0 0 173 31" fill="none" xmlns="http://www.w3.org/2000/svg">
<g clip-path="url(#clip0_0_14)">
<path fill-rule="evenodd" clip-rule="evenodd" d="M1.57329 23.052C1.57329 11.7932 12.0792 2.66205 25.0446 2.66205C33.5319 2.66205 40.9623 6.57402 45.0851 12.442C41.5215 5.1285 33.1859 0 23.4666 0C10.506 0 0 9.12635 0 20.3852C0 24.2733 1.25105 27.9038 3.42616 30.9952C2.23672 28.5526 1.57329 25.8667 1.57329 23.0472V23.052Z" fill="#006C9D"/>
<path d="M19.8651 28.5383L19.069 26.4344H12.2972L11.5011 28.586C11.1931 29.4257 10.9277 29.9886 10.7097 30.2844C10.487 30.5754 10.1268 30.7233 9.62927 30.7233C9.20278 30.7233 8.82841 30.5659 8.50143 30.2558C8.1792 29.9409 8.01334 29.5879 8.01334 29.1919C8.01334 28.9629 8.05125 28.7244 8.12707 28.4811C8.20289 28.2378 8.33084 27.899 8.50143 27.4649L12.7664 16.5734C12.8848 16.2585 13.0317 15.8817 13.2023 15.4475C13.3729 15.0086 13.5578 14.6413 13.7473 14.355C13.9416 14.064 14.1975 13.8303 14.5103 13.649C14.8278 13.4677 15.2116 13.3818 15.676 13.3818C16.1404 13.3818 16.5385 13.4677 16.8512 13.649C17.164 13.8303 17.4199 14.0545 17.6094 14.3407C17.8037 14.6222 17.9649 14.9275 18.0975 15.2519C18.2302 15.5763 18.4008 16.0057 18.6046 16.5495L22.9596 27.3695C23.3008 28.1948 23.4714 28.7912 23.4714 29.1633C23.4714 29.5354 23.3102 29.9123 22.988 30.2367C22.6658 30.5611 22.2772 30.7185 21.8222 30.7185C21.5569 30.7185 21.3294 30.6708 21.1399 30.5754C20.9503 30.48 20.7939 30.3512 20.6612 30.1842C20.5333 30.022 20.3959 29.7692 20.249 29.4304C20.1021 29.0917 19.9741 28.7959 19.8651 28.5335V28.5383ZM13.1834 23.8821H18.1639L15.6523 16.9646L13.1881 23.8821H13.1834Z" fill="#006C9D"/>
<path d="M33.058 30.4418H27.9685C27.2292 30.4418 26.708 30.2701 26.3905 29.9457C26.073 29.6117 25.9166 29.0822 25.9166 28.357V15.7528C25.9166 15.0134 26.0777 14.4791 26.4047 14.1594C26.7269 13.835 27.2482 13.6728 27.9685 13.6728H33.366C34.1621 13.6728 34.8493 13.7205 35.4321 13.8207C36.015 13.9209 36.541 14.1117 37.0007 14.3932C37.3988 14.627 37.7447 14.9275 38.048 15.2901C38.3513 15.6479 38.5787 16.0486 38.7398 16.4875C38.901 16.9264 38.9768 17.3892 38.9768 17.8758C38.9768 19.5551 38.1427 20.7812 36.4794 21.5636C38.6688 22.2648 39.7634 23.6293 39.7634 25.6568C39.7634 26.5966 39.5217 27.4411 39.0479 28.1948C38.5692 28.9438 37.9248 29.502 37.1144 29.8598C36.6074 30.0745 36.0245 30.2224 35.3611 30.313C34.7024 30.3989 33.9347 30.4466 33.0533 30.4466L33.058 30.4418ZM29.2954 16.2156V20.5522H32.3898C33.2286 20.5522 33.8778 20.4711 34.3375 20.3089C34.7971 20.1514 35.1478 19.8413 35.3895 19.3977C35.579 19.078 35.6738 18.7202 35.6738 18.3243C35.6738 17.4751 35.3705 16.9169 34.7734 16.6354C34.1764 16.3587 33.2618 16.2156 32.0344 16.2156H29.2954ZM32.8068 22.99H29.2954V27.8895H32.9206C35.1999 27.8895 36.3467 27.0642 36.3467 25.404C36.3467 24.5548 36.0482 23.9441 35.4558 23.5577C34.8635 23.1808 33.9821 22.9852 32.8068 22.9852V22.99Z" fill="#006C9D"/>
<path d="M113.703 17.4178C113.708 18.5914 112.77 19.5456 111.609 19.5456C110.448 19.5456 109.5 18.6057 109.495 17.4369C109.486 16.2633 110.429 15.3092 111.59 15.3044C112.755 15.3044 113.703 16.2442 113.708 17.4178H113.703Z" fill="white"/>
<path d="M48.3217 30.4705V13.482H51.255V30.4705H48.3217ZM61.8416 30.4705V23.1188H53.3828V20.4902H61.8416V13.482H64.7749V30.4705H61.8416Z" fill="white"/>
<path d="M74.9065 30.3989C73.736 30.3989 72.6508 30.1747 71.6604 29.7405C70.6652 29.2969 69.8028 28.6957 69.0683 27.9229C68.3385 27.15 67.7651 26.2388 67.3576 25.1893C66.95 24.1302 66.7462 22.99 66.7462 21.7687C66.7462 20.5474 66.95 19.3929 67.3576 18.3672C67.7651 17.3463 68.3385 16.4732 69.0683 15.7528C69.798 15.0325 70.6652 14.4695 71.6604 14.0736C72.6508 13.6824 73.736 13.482 74.9065 13.482H78.9961C80.2092 13.482 81.3276 13.6824 82.337 14.0831C83.3463 14.4886 84.2088 15.0563 84.9386 15.7862C85.6636 16.5114 86.2275 17.3844 86.6303 18.4054C87.0284 19.4167 87.2274 20.5379 87.2274 21.7639C87.2274 22.99 87.0236 24.1302 86.6161 25.1845C86.2086 26.2388 85.6399 27.15 84.9054 27.9181C84.1756 28.6862 83.3084 29.2921 82.3038 29.7358C81.3039 30.1747 80.1997 30.3941 78.9961 30.3941H74.9065V30.3989ZM78.9961 27.4411C79.7638 27.4411 80.4746 27.3027 81.1238 27.0212C81.773 26.7445 82.3322 26.3629 82.8014 25.8715C83.2705 25.3849 83.6354 24.7981 83.9008 24.1159C84.1614 23.4337 84.2893 22.6942 84.2893 21.907C84.2893 21.1199 84.1614 20.3804 83.9008 19.7078C83.6354 19.0351 83.2705 18.4531 82.8014 17.9712C82.3322 17.4942 81.773 17.1173 81.1238 16.8453C80.4746 16.5734 79.7685 16.4351 78.9961 16.4351H74.9065C74.153 16.4351 73.4517 16.5782 72.8167 16.8453C72.1769 17.1173 71.6225 17.4942 71.1628 17.9712C70.6984 18.4531 70.3383 19.0303 70.0776 19.6982C69.8123 20.3613 69.6796 21.1008 69.6796 21.907C69.6796 22.7133 69.8123 23.4337 70.0776 24.1159C70.3383 24.7981 70.7032 25.3849 71.1628 25.8715C71.6225 26.3629 72.1722 26.7445 72.8167 27.0212C73.4517 27.3027 74.153 27.4411 74.9065 27.4411H78.9961Z" fill="white"/>
<path d="M104.747 30.3989L100.491 25.695H94.2077V23.0902H101.212C102.273 23.0902 103.074 22.7992 103.614 22.2219C104.154 21.6399 104.425 20.7955 104.425 19.6982C104.425 18.601 104.145 17.7756 103.586 17.2413C103.017 16.7022 102.23 16.4351 101.216 16.4351H92.061V30.3989H89.1466V13.482H101.216C102.169 13.482 103.027 13.6251 103.785 13.9114C104.534 14.1976 105.178 14.6079 105.699 15.147C106.225 15.6861 106.628 16.3301 106.908 17.0886C107.178 17.852 107.32 18.7011 107.32 19.6457C107.32 21.0579 107.017 22.241 106.405 23.1999C105.799 24.154 104.946 24.8363 103.851 25.2561L108.912 30.3989H104.752H104.747Z" fill="white"/>
<path d="M110.13 30.3989V20.6858H113.063V30.3989H110.13Z" fill="white"/>
<path d="M116.812 30.3989C116.362 30.3989 115.973 30.2701 115.646 30.0172C115.314 29.7548 115.148 29.3875 115.148 28.8866C115.148 28.4477 115.352 28.0326 115.75 27.6319L126.915 16.2967H115.357V13.482H130.062C130.493 13.482 130.877 13.6108 131.213 13.8684C131.554 14.1213 131.725 14.4982 131.725 14.9943C131.725 15.4332 131.521 15.8483 131.123 16.249L119.958 27.5842H131.654V30.3989H116.817H116.812Z" fill="white"/>
<path d="M141.421 30.3989C140.255 30.3989 139.174 30.1747 138.179 29.7405C137.184 29.2969 136.322 28.6957 135.592 27.9229C134.857 27.15 134.289 26.2388 133.881 25.1893C133.469 24.1302 133.265 22.99 133.265 21.7687C133.265 20.5474 133.469 19.3929 133.881 18.3672C134.284 17.3463 134.857 16.4732 135.592 15.7528C136.322 15.0325 137.189 14.4695 138.179 14.0736C139.174 13.6824 140.255 13.482 141.421 13.482H145.515C146.728 13.482 147.846 13.6824 148.851 14.0831C149.86 14.4886 150.728 15.0563 151.453 15.7862C152.178 16.5114 152.742 17.3844 153.144 18.4054C153.542 19.4167 153.741 20.5379 153.741 21.7639C153.741 22.99 153.538 24.1302 153.13 25.1845C152.723 26.2388 152.154 27.15 151.419 27.9181C150.69 28.6862 149.822 29.2921 148.818 29.7358C147.818 30.1747 146.719 30.3941 145.515 30.3941H141.421V30.3989ZM145.515 27.4411C146.283 27.4411 146.989 27.3027 147.638 27.0212C148.282 26.7445 148.846 26.3629 149.315 25.8715C149.785 25.3849 150.145 24.7981 150.41 24.1159C150.671 23.4337 150.803 22.6942 150.803 21.907C150.803 21.1199 150.671 20.3804 150.41 19.7078C150.145 19.0351 149.785 18.4531 149.315 17.9712C148.842 17.4942 148.282 17.1173 147.638 16.8453C146.989 16.5734 146.283 16.4351 145.515 16.4351H141.421C140.672 16.4351 139.97 16.5782 139.335 16.8453C138.696 17.1173 138.141 17.4942 137.682 17.9712C137.217 18.4531 136.857 19.0303 136.596 19.6982C136.336 20.3613 136.203 21.1008 136.203 21.907C136.203 22.7133 136.336 23.4337 136.596 24.1159C136.857 24.7981 137.222 25.3849 137.682 25.8715C138.141 26.3629 138.696 26.7445 139.335 27.0212C139.97 27.3027 140.672 27.4411 141.421 27.4411H145.515Z" fill="white"/>
<path d="M158.39 18.0189V30.3989H155.599V15.042C155.599 14.5029 155.732 14.0688 156.002 13.7492C156.272 13.4343 156.642 13.2721 157.101 13.2721C157.319 13.2721 157.523 13.3246 157.727 13.4152C157.926 13.5106 158.134 13.6585 158.352 13.8827L170.214 25.7236V13.3484H173.009V28.8437C173.009 29.4018 172.872 29.836 172.607 30.1413C172.337 30.4562 171.981 30.6088 171.55 30.6088C171.076 30.6088 170.631 30.4037 170.214 29.9791L158.4 18.0189H158.39Z" fill="white"/>
</g>
<defs>
<clipPath id="clip0_0_14">
<rect width="173" height="31" fill="white"/>
</clipPath>
</defs>
</svg>
