<svg width="56" height="56" viewBox="0 0 56 56" fill="none" xmlns="http://www.w3.org/2000/svg">
<g clip-path="url(#clip0_0_92)">
<path d="M28.833 46.6667H23.3333V44.3333H28.833C33.2663 44.3333 34.5147 41.3723 34.8635 39.6667H17.8302C16.2403 39.6265 14.6992 40.2176 13.5441 41.3109C12.389 42.4041 11.714 43.9103 11.6667 45.5H9.33334C9.38114 43.291 10.3027 41.191 11.896 39.6602C13.4893 38.1294 15.6245 37.2927 17.8337 37.3333H36.1667C36.4761 37.3333 36.7728 37.4562 36.9916 37.675C37.2104 37.8938 37.3333 38.1906 37.3333 38.5C37.3567 39.6074 37.1502 40.7077 36.7268 41.7313C36.3035 42.7549 35.6725 43.6796 34.8737 44.447C34.075 45.2145 33.1257 45.8079 32.086 46.19C31.0463 46.572 29.9386 46.7343 28.833 46.6667Z" fill="black"/>
<path d="M37.3333 56H12.8333C11.9051 56 11.0148 55.6313 10.3585 54.9749C9.70209 54.3185 9.33334 53.4283 9.33334 52.5V49H11.6667V52.5C11.6667 52.8095 11.7896 53.1062 12.0084 53.325C12.2272 53.5438 12.5239 53.6667 12.8333 53.6667H36.9833L53.2747 42.9544C53.3981 42.8481 53.4968 42.7162 53.5641 42.5679C53.6314 42.4197 53.6657 42.2585 53.6644 42.0957C53.6632 41.9328 53.6266 41.7722 53.5571 41.6249C53.4875 41.4777 53.3868 41.3473 53.2618 41.2429C52.9903 41.0112 52.6531 40.8703 52.2975 40.8397C51.9419 40.8092 51.5856 40.8906 51.2785 41.0725L39.1008 48.4809C38.9258 48.5871 38.726 48.6456 38.5214 48.6507C38.3167 48.6559 38.1143 48.6074 37.9342 48.51L32.1008 45.36L33.2115 43.3067L38.4615 46.1394L50.0733 39.0834C50.8085 38.6357 51.6683 38.4365 52.5254 38.515C53.3826 38.5936 54.1918 38.9459 54.8333 39.5197C55.2065 39.8507 55.5036 40.2585 55.7044 40.7151C55.9051 41.1717 56.0047 41.6664 55.9962 42.1651C55.9878 42.6638 55.8716 43.1548 55.6556 43.6044C55.4395 44.054 55.1288 44.4515 54.7447 44.7697C54.7076 44.8015 54.6686 44.8311 54.628 44.8584L37.9762 55.8087C37.7848 55.9331 37.5616 55.9995 37.3333 56Z" fill="black"/>
<path d="M10.5 54.8334H1.16667C0.857247 54.8334 0.560501 54.7105 0.341709 54.4917C0.122916 54.2729 0 53.9761 0 53.6667V42C0 41.6906 0.122916 41.3939 0.341709 41.1751C0.560501 40.9563 0.857247 40.8334 1.16667 40.8334H11.6667V43.1667H2.33333V52.5H10.5V54.8334Z" fill="black"/>
<path d="M23.3333 31.5C23.0239 31.4999 22.7272 31.377 22.5085 31.1582L17.017 25.6667H5.83333C4.28681 25.6648 2.80415 25.0496 1.71059 23.9561C0.617029 22.8625 0.0018525 21.3799 0 19.8333L0 5.83333C0.0018525 4.28681 0.617029 2.80415 1.71059 1.71059C2.80415 0.617029 4.28681 0.0018525 5.83333 0L29.1667 0C30.7132 0.0018525 32.1959 0.617029 33.2894 1.71059C34.383 2.80415 34.9981 4.28681 35 5.83333V19.8333C34.9981 21.3799 34.383 22.8625 33.2894 23.9561C32.1959 25.0496 30.7132 25.6648 29.1667 25.6667H24.5V30.3333C24.5001 30.5641 24.4317 30.7896 24.3036 30.9815C24.1754 31.1734 23.9933 31.323 23.7802 31.4113C23.6386 31.4704 23.4867 31.5005 23.3333 31.5ZM5.83333 2.33333C4.90508 2.33333 4.01484 2.70208 3.35846 3.35846C2.70208 4.01484 2.33333 4.90508 2.33333 5.83333V19.8333C2.33333 20.7616 2.70208 21.6518 3.35846 22.3082C4.01484 22.9646 4.90508 23.3333 5.83333 23.3333H17.5C17.8094 23.3334 18.1061 23.4564 18.3248 23.6752L22.1667 27.517V24.5C22.1667 24.1906 22.2896 23.8938 22.5084 23.675C22.7272 23.4563 23.0239 23.3333 23.3333 23.3333H29.1667C30.0949 23.3333 30.9852 22.9646 31.6415 22.3082C32.2979 21.6518 32.6667 20.7616 32.6667 19.8333V5.83333C32.6667 4.90508 32.2979 4.01484 31.6415 3.35846C30.9852 2.70208 30.0949 2.33333 29.1667 2.33333H5.83333Z" fill="#669DF6"/>
<path d="M40.8333 37.3333C40.6799 37.3338 40.528 37.3037 40.3865 37.2447C40.1733 37.1563 39.9912 37.0067 39.8631 36.8148C39.7349 36.623 39.6666 36.3974 39.6666 36.1667V32.6667H31.5C31.1906 32.6667 30.8938 32.5438 30.675 32.325C30.4562 32.1062 30.3333 31.8094 30.3333 31.5V28H32.6666V30.3333H40.8333C41.1427 30.3333 41.4395 30.4562 41.6583 30.675C41.8771 30.8938 42 31.1906 42 31.5V33.3503L44.6751 30.6752C44.8939 30.4564 45.1906 30.3334 45.5 30.3333H53.6666V16.3333H37.3333V14H54.8333C55.1427 14 55.4395 14.1229 55.6583 14.3417C55.8771 14.5605 56 14.8572 56 15.1667V31.5C56 31.8094 55.8771 32.1062 55.6583 32.325C55.4395 32.5438 55.1427 32.6667 54.8333 32.6667H45.983L41.6581 36.9915C41.4394 37.2103 41.1427 37.3333 40.8333 37.3333Z" fill="#AECBFA"/>
<path d="M49 22.1666H51.3333V24.5H49V22.1666Z" fill="#AECBFA"/>
<path d="M37.3333 22.1666H46.6666V24.5H37.3333V22.1666Z" fill="#AECBFA"/>
<path d="M8.16666 16.3334C7.47442 16.3334 6.79773 16.1281 6.22216 15.7435C5.64659 15.3589 5.19799 14.8123 4.93308 14.1728C4.66817 13.5332 4.59886 12.8295 4.73391 12.1506C4.86896 11.4716 5.2023 10.848 5.69178 10.3585C6.18127 9.86902 6.80491 9.53568 7.48384 9.40063C8.16278 9.26558 8.86651 9.33489 9.50605 9.5998C10.1456 9.8647 10.6922 10.3133 11.0768 10.8889C11.4614 11.4645 11.6667 12.1411 11.6667 12.8334C11.6667 13.7616 11.2979 14.6519 10.6415 15.3083C9.98515 15.9646 9.09492 16.3334 8.16666 16.3334ZM8.16666 11.6667C7.93591 11.6667 7.71035 11.7351 7.51849 11.8633C7.32664 11.9915 7.1771 12.1737 7.0888 12.3869C7.0005 12.6001 6.97739 12.8347 7.02241 13.061C7.06742 13.2873 7.17854 13.4952 7.3417 13.6583C7.50486 13.8215 7.71274 13.9326 7.93905 13.9776C8.16536 14.0226 8.39994 13.9995 8.61312 13.9112C8.8263 13.8229 9.00851 13.6734 9.13671 13.4815C9.2649 13.2897 9.33332 13.0641 9.33332 12.8334C9.33332 12.524 9.21041 12.2272 8.99162 12.0084C8.77282 11.7896 8.47608 11.6667 8.16666 11.6667Z" fill="#669DF6"/>
<path d="M17.5 16.3334C16.8078 16.3334 16.1311 16.1281 15.5555 15.7435C14.9799 15.3589 14.5313 14.8123 14.2664 14.1728C14.0015 13.5332 13.9322 12.8295 14.0673 12.1506C14.2023 11.4716 14.5356 10.848 15.0251 10.3585C15.5146 9.86902 16.1383 9.53568 16.8172 9.40063C17.4961 9.26558 18.1999 9.33489 18.8394 9.5998C19.4789 9.8647 20.0256 10.3133 20.4101 10.8889C20.7947 11.4645 21 12.1411 21 12.8334C21 13.7616 20.6313 14.6519 19.9749 15.3083C19.3185 15.9646 18.4283 16.3334 17.5 16.3334ZM17.5 11.6667C17.2693 11.6667 17.0437 11.7351 16.8518 11.8633C16.66 11.9915 16.5104 12.1737 16.4221 12.3869C16.3338 12.6001 16.3107 12.8347 16.3558 13.061C16.4008 13.2873 16.5119 13.4952 16.675 13.6583C16.8382 13.8215 17.0461 13.9326 17.2724 13.9776C17.4987 14.0226 17.7333 13.9995 17.9465 13.9112C18.1596 13.8229 18.3419 13.6734 18.47 13.4815C18.5982 13.2897 18.6667 13.0641 18.6667 12.8334C18.6667 12.524 18.5438 12.2272 18.325 12.0084C18.1062 11.7896 17.8094 11.6667 17.5 11.6667Z" fill="#669DF6"/>
<path d="M26.8333 16.3334C26.1411 16.3334 25.4644 16.1281 24.8888 15.7435C24.3132 15.3589 23.8646 14.8123 23.5997 14.1728C23.3348 13.5332 23.2655 12.8295 23.4006 12.1506C23.5356 11.4716 23.869 10.848 24.3584 10.3585C24.8479 9.86902 25.4716 9.53568 26.1505 9.40063C26.8294 9.26558 27.5332 9.33489 28.1727 9.5998C28.8122 9.8647 29.3589 10.3133 29.7435 10.8889C30.128 11.4645 30.3333 12.1411 30.3333 12.8334C30.3333 13.7616 29.9646 14.6519 29.3082 15.3083C28.6518 15.9646 27.7616 16.3334 26.8333 16.3334ZM26.8333 11.6667C26.6026 11.6667 26.377 11.7351 26.1851 11.8633C25.9933 11.9915 25.8438 12.1737 25.7555 12.3869C25.6672 12.6001 25.644 12.8347 25.6891 13.061C25.7341 13.2873 25.8452 13.4952 26.0084 13.6583C26.1715 13.8215 26.3794 13.9326 26.6057 13.9776C26.832 14.0226 27.0666 13.9995 27.2798 13.9112C27.493 13.8229 27.6752 13.6734 27.8034 13.4815C27.9316 13.2897 28 13.0641 28 12.8334C28 12.524 27.8771 12.2272 27.6583 12.0084C27.4395 11.7896 27.1427 11.6667 26.8333 11.6667Z" fill="#669DF6"/>
</g>
<defs>
<clipPath id="clip0_0_92">
<rect width="56" height="56" fill="white"/>
</clipPath>
</defs>
</svg>
