<svg width="36" height="36" viewBox="0 0 36 36" fill="none" xmlns="http://www.w3.org/2000/svg">
<path d="M24.4283 11.0323C23.3757 4.55081 20.8929 0 18.0036 0C15.1143 0 12.6316 4.55081 11.5789 11.0323H24.4283ZM11.0345 18C11.0345 19.6113 11.1216 21.1573 11.274 22.6452H24.726C24.8784 21.1573 24.9655 19.6113 24.9655 18C24.9655 16.3887 24.8784 14.8427 24.726 13.3548H11.274C11.1216 14.8427 11.0345 16.3887 11.0345 18ZM34.6062 11.0323C32.5299 6.10403 28.3267 2.29355 23.1361 0.754839C24.9074 3.20806 26.127 6.90242 26.7659 11.0323H34.6062ZM12.8639 0.754839C7.68058 2.29355 3.47005 6.10403 1.40109 11.0323H9.24138C9.87296 6.90242 11.0926 3.20806 12.8639 0.754839ZM35.3829 13.3548H27.0563C27.2087 14.879 27.2958 16.4395 27.2958 18C27.2958 19.5605 27.2087 21.121 27.0563 22.6452H35.3757C35.775 21.1573 36 19.6113 36 18C36 16.3887 35.775 14.8427 35.3829 13.3548ZM8.71143 18C8.71143 16.4395 8.79855 14.879 8.951 13.3548H0.624319C0.232305 14.8427 0 16.3887 0 18C0 19.6113 0.232305 21.1573 0.624319 22.6452H8.94374C8.79855 21.121 8.71143 19.5605 8.71143 18ZM11.5789 24.9677C12.6316 31.4492 15.1143 36 18.0036 36C20.8929 36 23.3757 31.4492 24.4283 24.9677H11.5789ZM23.1434 35.2452C28.3267 33.7065 32.5372 29.896 34.6134 24.9677H26.7731C26.1343 29.0976 24.9147 32.7919 23.1434 35.2452ZM1.40109 24.9677C3.47731 29.896 7.68058 33.7065 12.8711 35.2452C11.0998 32.7919 9.88022 29.0976 9.24138 24.9677H1.40109Z" fill="white" fill-opacity="0.5"/>
</svg>
